<mxfile host="app.diagrams.net" agent="Mozilla/5.0 (Macintosh; Intel Mac OS X 10_15_7) AppleWebKit/537.36 (KHTML, like Gecko) Chrome/127.0.0.0 Safari/537.36" version="24.7.7">
  <diagram id="C5RBs43oDa-KdzZeNtuy" name="Page-1">
    <mxGraphModel dx="968" dy="544" grid="1" gridSize="10" guides="1" tooltips="1" connect="1" arrows="1" fold="1" page="1" pageScale="1" pageWidth="827" pageHeight="1169" math="0" shadow="0">
      <root>
        <mxCell id="WIyWlLk6GJQsqaUBKTNV-0" />
        <mxCell id="WIyWlLk6GJQsqaUBKTNV-1" parent="WIyWlLk6GJQsqaUBKTNV-0" />
        <mxCell id="e-_WCHEav21t-MaE0KTX-3" style="edgeStyle=orthogonalEdgeStyle;rounded=0;orthogonalLoop=1;jettySize=auto;html=1;" edge="1" parent="WIyWlLk6GJQsqaUBKTNV-1">
          <mxGeometry relative="1" as="geometry">
            <mxPoint x="180" y="180" as="sourcePoint" />
            <mxPoint x="180" y="220" as="targetPoint" />
          </mxGeometry>
        </mxCell>
        <mxCell id="e-_WCHEav21t-MaE0KTX-1" style="edgeStyle=orthogonalEdgeStyle;rounded=0;orthogonalLoop=1;jettySize=auto;html=1;entryX=0.5;entryY=0;entryDx=0;entryDy=0;" edge="1" parent="WIyWlLk6GJQsqaUBKTNV-1" source="e-_WCHEav21t-MaE0KTX-0">
          <mxGeometry relative="1" as="geometry">
            <mxPoint x="180" y="140" as="targetPoint" />
          </mxGeometry>
        </mxCell>
        <mxCell id="e-_WCHEav21t-MaE0KTX-0" value="Mulai" style="ellipse;whiteSpace=wrap;html=1;" vertex="1" parent="WIyWlLk6GJQsqaUBKTNV-1">
          <mxGeometry x="120" y="60" width="120" height="40" as="geometry" />
        </mxCell>
        <mxCell id="e-_WCHEav21t-MaE0KTX-14" style="edgeStyle=orthogonalEdgeStyle;rounded=0;orthogonalLoop=1;jettySize=auto;html=1;exitX=1;exitY=0.5;exitDx=0;exitDy=0;entryX=0;entryY=0.5;entryDx=0;entryDy=0;" edge="1" parent="WIyWlLk6GJQsqaUBKTNV-1" source="e-_WCHEav21t-MaE0KTX-4" target="e-_WCHEav21t-MaE0KTX-15">
          <mxGeometry relative="1" as="geometry">
            <mxPoint x="360" y="160" as="targetPoint" />
            <Array as="points">
              <mxPoint x="270" y="290" />
              <mxPoint x="270" y="170" />
            </Array>
          </mxGeometry>
        </mxCell>
        <mxCell id="e-_WCHEav21t-MaE0KTX-11" value="" style="swimlane;startSize=0;" vertex="1" parent="WIyWlLk6GJQsqaUBKTNV-1">
          <mxGeometry x="40" y="120" width="280" height="350" as="geometry" />
        </mxCell>
        <mxCell id="e-_WCHEav21t-MaE0KTX-64" style="edgeStyle=orthogonalEdgeStyle;rounded=0;orthogonalLoop=1;jettySize=auto;html=1;entryX=0.5;entryY=0;entryDx=0;entryDy=0;" edge="1" parent="e-_WCHEav21t-MaE0KTX-11" source="e-_WCHEav21t-MaE0KTX-23" target="e-_WCHEav21t-MaE0KTX-63">
          <mxGeometry relative="1" as="geometry" />
        </mxCell>
        <mxCell id="e-_WCHEav21t-MaE0KTX-23" value="Render Titik Tempat Wisata di Maps" style="rounded=1;whiteSpace=wrap;html=1;fontSize=12;glass=0;strokeWidth=1;shadow=0;" vertex="1" parent="e-_WCHEav21t-MaE0KTX-11">
          <mxGeometry x="80" y="210" width="120" height="40" as="geometry" />
        </mxCell>
        <mxCell id="e-_WCHEav21t-MaE0KTX-6" value="User Klik Search" style="shape=trapezoid;perimeter=trapezoidPerimeter;whiteSpace=wrap;html=1;fixedSize=1;flipV=1;" vertex="1" parent="e-_WCHEav21t-MaE0KTX-11">
          <mxGeometry x="80" y="80" width="120" height="40" as="geometry" />
        </mxCell>
        <mxCell id="e-_WCHEav21t-MaE0KTX-9" style="edgeStyle=orthogonalEdgeStyle;rounded=0;orthogonalLoop=1;jettySize=auto;html=1;entryX=0.5;entryY=0;entryDx=0;entryDy=0;" edge="1" parent="e-_WCHEav21t-MaE0KTX-11" source="e-_WCHEav21t-MaE0KTX-6">
          <mxGeometry relative="1" as="geometry">
            <mxPoint x="140" y="150" as="targetPoint" />
          </mxGeometry>
        </mxCell>
        <mxCell id="e-_WCHEav21t-MaE0KTX-4" value="Mengirim Request&amp;nbsp;" style="rounded=1;whiteSpace=wrap;html=1;fontSize=12;glass=0;strokeWidth=1;shadow=0;" vertex="1" parent="e-_WCHEav21t-MaE0KTX-11">
          <mxGeometry x="80" y="150" width="120" height="40" as="geometry" />
        </mxCell>
        <mxCell id="e-_WCHEav21t-MaE0KTX-51" value="Front End" style="text;html=1;align=center;verticalAlign=middle;resizable=0;points=[];autosize=1;strokeColor=none;fillColor=none;" vertex="1" parent="e-_WCHEav21t-MaE0KTX-11">
          <mxGeometry x="208" y="-4" width="80" height="30" as="geometry" />
        </mxCell>
        <mxCell id="e-_WCHEav21t-MaE0KTX-53" value="Kata Kunci&amp;nbsp;&lt;div&gt;Pencarian&lt;/div&gt;" style="shape=parallelogram;perimeter=parallelogramPerimeter;whiteSpace=wrap;html=1;fixedSize=1;" vertex="1" parent="e-_WCHEav21t-MaE0KTX-11">
          <mxGeometry x="80" y="20" width="120" height="40" as="geometry" />
        </mxCell>
        <mxCell id="e-_WCHEav21t-MaE0KTX-63" value="Zoom in/out Maps" style="rounded=1;whiteSpace=wrap;html=1;fontSize=12;glass=0;strokeWidth=1;shadow=0;" vertex="1" parent="e-_WCHEav21t-MaE0KTX-11">
          <mxGeometry x="80" y="280" width="120" height="40" as="geometry" />
        </mxCell>
        <mxCell id="e-_WCHEav21t-MaE0KTX-12" value="" style="swimlane;startSize=0;" vertex="1" parent="WIyWlLk6GJQsqaUBKTNV-1">
          <mxGeometry x="340" y="120" width="260" height="350" as="geometry" />
        </mxCell>
        <mxCell id="e-_WCHEav21t-MaE0KTX-13" value="Kirim Response" style="rounded=1;whiteSpace=wrap;html=1;fontSize=12;glass=0;strokeWidth=1;shadow=0;" vertex="1" parent="e-_WCHEav21t-MaE0KTX-12">
          <mxGeometry x="60" y="280" width="120" height="50" as="geometry" />
        </mxCell>
        <mxCell id="e-_WCHEav21t-MaE0KTX-66" style="edgeStyle=orthogonalEdgeStyle;rounded=0;orthogonalLoop=1;jettySize=auto;html=1;entryX=0.5;entryY=0;entryDx=0;entryDy=0;" edge="1" parent="e-_WCHEav21t-MaE0KTX-12" source="e-_WCHEav21t-MaE0KTX-15" target="e-_WCHEav21t-MaE0KTX-55">
          <mxGeometry relative="1" as="geometry" />
        </mxCell>
        <mxCell id="e-_WCHEav21t-MaE0KTX-15" value="Query Data Lokasi Berdasarkan Nama Lokasi" style="rounded=1;whiteSpace=wrap;html=1;fontSize=12;glass=0;strokeWidth=1;shadow=0;" vertex="1" parent="e-_WCHEav21t-MaE0KTX-12">
          <mxGeometry x="60" y="20" width="120" height="60" as="geometry" />
        </mxCell>
        <mxCell id="e-_WCHEav21t-MaE0KTX-52" value="Back End" style="text;html=1;align=center;verticalAlign=middle;resizable=0;points=[];autosize=1;strokeColor=none;fillColor=none;" vertex="1" parent="e-_WCHEav21t-MaE0KTX-12">
          <mxGeometry x="190" width="70" height="30" as="geometry" />
        </mxCell>
        <mxCell id="e-_WCHEav21t-MaE0KTX-57" style="edgeStyle=orthogonalEdgeStyle;rounded=0;orthogonalLoop=1;jettySize=auto;html=1;entryX=0.5;entryY=0;entryDx=0;entryDy=0;" edge="1" parent="e-_WCHEav21t-MaE0KTX-12" source="e-_WCHEav21t-MaE0KTX-55" target="e-_WCHEav21t-MaE0KTX-56">
          <mxGeometry relative="1" as="geometry" />
        </mxCell>
        <mxCell id="e-_WCHEav21t-MaE0KTX-55" value="Hitung Semua Jarak Tempat Wisata dengan Jarak User" style="rounded=1;whiteSpace=wrap;html=1;fontSize=12;glass=0;strokeWidth=1;shadow=0;" vertex="1" parent="e-_WCHEav21t-MaE0KTX-12">
          <mxGeometry x="60" y="105" width="120" height="60" as="geometry" />
        </mxCell>
        <mxCell id="e-_WCHEav21t-MaE0KTX-58" style="edgeStyle=orthogonalEdgeStyle;rounded=0;orthogonalLoop=1;jettySize=auto;html=1;entryX=0.5;entryY=0;entryDx=0;entryDy=0;" edge="1" parent="e-_WCHEav21t-MaE0KTX-12" source="e-_WCHEav21t-MaE0KTX-56" target="e-_WCHEav21t-MaE0KTX-13">
          <mxGeometry relative="1" as="geometry" />
        </mxCell>
        <mxCell id="e-_WCHEav21t-MaE0KTX-56" value="Filter Tempat Wisata dengan Jarak &amp;lt; 500 KM" style="rounded=1;whiteSpace=wrap;html=1;fontSize=12;glass=0;strokeWidth=1;shadow=0;" vertex="1" parent="e-_WCHEav21t-MaE0KTX-12">
          <mxGeometry x="60" y="200" width="120" height="60" as="geometry" />
        </mxCell>
        <mxCell id="e-_WCHEav21t-MaE0KTX-47" value="Selesai" style="ellipse;whiteSpace=wrap;html=1;" vertex="1" parent="WIyWlLk6GJQsqaUBKTNV-1">
          <mxGeometry x="120" y="500" width="120" height="40" as="geometry" />
        </mxCell>
        <mxCell id="e-_WCHEav21t-MaE0KTX-59" style="edgeStyle=orthogonalEdgeStyle;rounded=0;orthogonalLoop=1;jettySize=auto;html=1;entryX=1;entryY=0.5;entryDx=0;entryDy=0;" edge="1" parent="WIyWlLk6GJQsqaUBKTNV-1" source="e-_WCHEav21t-MaE0KTX-13" target="e-_WCHEav21t-MaE0KTX-23">
          <mxGeometry relative="1" as="geometry">
            <Array as="points">
              <mxPoint x="360" y="425" />
              <mxPoint x="360" y="350" />
            </Array>
          </mxGeometry>
        </mxCell>
        <mxCell id="e-_WCHEav21t-MaE0KTX-65" style="edgeStyle=orthogonalEdgeStyle;rounded=0;orthogonalLoop=1;jettySize=auto;html=1;entryX=0.5;entryY=0;entryDx=0;entryDy=0;" edge="1" parent="WIyWlLk6GJQsqaUBKTNV-1" source="e-_WCHEav21t-MaE0KTX-63" target="e-_WCHEav21t-MaE0KTX-47">
          <mxGeometry relative="1" as="geometry" />
        </mxCell>
      </root>
    </mxGraphModel>
  </diagram>
</mxfile>
